<mxfile host="app.diagrams.net" modified="2021-12-22T07:19:45.904Z" agent="5.0 (Macintosh; Intel Mac OS X 10_15_7) AppleWebKit/537.36 (KHTML, like Gecko) Chrome/96.0.4664.110 Safari/537.36" etag="gu1_3aZ4BwJH3YnLKU9N" version="15.9.4" type="github">
  <diagram id="Otl0ZYdTRFLQkl-ECk6v" name="Page-1">
    <mxGraphModel dx="526" dy="359" grid="1" gridSize="10" guides="1" tooltips="1" connect="1" arrows="1" fold="1" page="1" pageScale="1" pageWidth="400" pageHeight="200" math="0" shadow="0">
      <root>
        <mxCell id="0" />
        <mxCell id="1" parent="0" />
        <mxCell id="wy_viloxVUCDlJDMvBpg-1" value="实现布局" style="ellipse;whiteSpace=wrap;html=1;strokeColor=#FF5912;" vertex="1" parent="1">
          <mxGeometry x="140" y="60" width="120" height="80" as="geometry" />
        </mxCell>
        <mxCell id="wy_viloxVUCDlJDMvBpg-2" value="科技" style="rounded=0;whiteSpace=wrap;html=1;strokeColor=#FF5912;" vertex="1" parent="1">
          <mxGeometry x="30" y="140" width="100" height="50" as="geometry" />
        </mxCell>
        <mxCell id="wy_viloxVUCDlJDMvBpg-3" value="产品" style="rounded=0;whiteSpace=wrap;html=1;strokeColor=#FF5912;" vertex="1" parent="1">
          <mxGeometry x="30" y="30" width="100" height="50" as="geometry" />
        </mxCell>
        <mxCell id="wy_viloxVUCDlJDMvBpg-4" value="团队" style="rounded=0;whiteSpace=wrap;html=1;strokeColor=#FF5912;" vertex="1" parent="1">
          <mxGeometry x="280" y="140" width="100" height="50" as="geometry" />
        </mxCell>
        <mxCell id="wy_viloxVUCDlJDMvBpg-5" value="科技" style="rounded=0;whiteSpace=wrap;html=1;strokeColor=#FF5912;" vertex="1" parent="1">
          <mxGeometry x="280" y="30" width="100" height="50" as="geometry" />
        </mxCell>
      </root>
    </mxGraphModel>
  </diagram>
</mxfile>
